<?xml version="1.0" encoding="UTF-8"?>
<svg width="16px" height="16px" viewBox="0 0 16 16" version="1.1" xmlns="http://www.w3.org/2000/svg" xmlns:xlink="http://www.w3.org/1999/xlink">
    <!-- Generator: Sketch 55.1 (78136) - https://sketchapp.com -->
    <title>Icons/S/Edit</title>
    <desc>Created with Sketch.</desc>
    <g id="Icons/S/Edit" stroke="none" stroke-width="1" fill="none" fill-rule="evenodd">
        <path d="M15.3546218,14.8102564 C15.6638655,14.8102564 15.9193277,15.0700855 15.9193277,15.3709402 C15.9193277,15.6717949 15.6773109,15.9316239 15.3680672,15.9316239 L0.645378151,15.9316239 C0.349579832,15.9316239 0.0941176471,15.6717949 0.0941176471,15.3709402 C0.0941176471,15.0700855 0.336134454,14.8102564 0.645378151,14.8102564 L15.3546218,14.8102564 Z M0.0941176471,9.84615385 C0.0941176471,9.6957265 0.161344538,9.55897436 0.255462185,9.44957265 L7.46218487,2.13333333 L9.26386555,0.287179487 C9.49243697,0.0683760684 9.84201681,0.0683760684 10.0571429,0.287179487 L12.6386555,2.94017094 C12.8537815,3.17264957 12.8537815,3.52820513 12.6386555,3.74700855 L3.6302521,12.9094017 C3.52268908,13.0188034 3.38823529,13.0735043 3.24033613,13.0735043 L0.631932773,13.0871795 C0.484033613,13.0871795 0.349579832,13.0324786 0.242016807,12.9230769 C0.134453782,12.8136752 0.0806722689,12.6632479 0.0806722689,12.5128205 L0.0941176471,9.84615385 Z M9.66722689,1.49059829 L8.64537815,2.52991453 L10.4605042,4.37606838 L11.4823529,3.33675214 L9.66722689,1.49059829 Z M1.21008403,10.0923077 L1.19663866,11.9384615 L3.02521008,11.9247863 L9.66722689,5.18290598 L7.85210084,3.33675214 L1.21008403,10.0923077 Z" id="Combined-Shape" fill="#FFFFFF"></path>
    </g>
</svg>