<?xml version="1.0" encoding="UTF-8"?>
<svg width="24px" height="24px" viewBox="0 0 24 24" version="1.1" xmlns="http://www.w3.org/2000/svg" xmlns:xlink="http://www.w3.org/1999/xlink">
    <!-- Generator: Sketch 55.1 (78136) - https://sketchapp.com -->
    <title>Icons/L/Annotations/Shape 1</title>
    <desc>Created with Sketch.</desc>
    <g id="Icons/L/Annotations/Shape-1" stroke="none" stroke-width="1" fill="none" fill-rule="evenodd">
        <path d="M15.1955159,2.12690482 L3.17063316,6.82946854 C2.46455837,7.10559279 2,7.78543131 2,8.54258272 L2,15.0979772 C2,15.6392703 2.23872655,16.1530981 2.65262745,16.5026728 L8.64631737,21.5648559 C9.06934808,21.9221415 9.6309417,22.0703885 10.1755419,21.9685339 L18.2575893,20.4569775 C18.831538,20.3496339 19.3205582,19.977006 19.5757249,19.4525727 L22.8147594,12.7955251 C23.0966747,12.2161167 23.0545682,11.5316876 22.7037493,10.9910877 L17.4138603,2.83955031 C16.9378322,2.10600741 16.0106243,1.80814087 15.1955159,2.12690482 Z M15.8321277,3.7498551 C15.8750281,3.73307805 15.9238285,3.74875524 15.9488826,3.78736276 L21.2387716,11.9389001 C21.2572358,11.9673527 21.2594519,12.0033753 21.2446143,12.0338705 L18.0055798,18.6909181 C17.99215,18.7185199 17.9664121,18.7381319 17.9362043,18.7437815 L9.85415692,20.2553379 C9.82549375,20.2606987 9.79593619,20.2528962 9.77367142,20.2340917 L3.7799815,15.1719085 C3.75819725,15.1535099 3.74563269,15.1264663 3.74563269,15.0979772 L3.74563269,8.54258272 C3.74563269,8.50273265 3.77008313,8.46695167 3.80724496,8.45241882 L15.8321277,3.7498551 Z" id="Path-4" fill="#ffffff"></path>
    </g>
</svg>
