<?xml version="1.0" encoding="UTF-8"?>
<svg width="24px" height="24px" viewBox="0 0 24 24" version="1.1" xmlns="http://www.w3.org/2000/svg" xmlns:xlink="http://www.w3.org/1999/xlink">
    <!-- Generator: Sketch 55.1 (78136) - https://sketchapp.com -->
    <title>Icons/L/Annotations/Shape 2</title>
    <desc>Created with Sketch.</desc>
    <g id="Icons/L/Annotations/Shape-2" stroke="none" stroke-width="1" fill="none" fill-rule="evenodd">
        <path d="M4,2 L20,2 C21.1045695,2 22,2.8954305 22,4 L22,20 C22,21.1045695 21.1045695,22 20,22 L4,22 C2.8954305,22 2,21.1045695 2,20 L2,4 C2,2.8954305 2.8954305,2 4,2 Z M4,3.6 C3.7790861,3.6 3.6,3.7790861 3.6,4 L3.6,20 C3.6,20.2209139 3.7790861,20.4 4,20.4 L20,20.4 C20.2209139,20.4 20.4,20.2209139 20.4,20 L20.4,4 C20.4,3.7790861 20.2209139,3.6 20,3.6 L4,3.6 Z" id="Rectangle" fill="#ffffff"></path>
    </g>
</svg>
