<?xml version="1.0" encoding="UTF-8"?>
<svg width="16px" height="16px" viewBox="0 0 16 16" version="1.1" xmlns="http://www.w3.org/2000/svg" xmlns:xlink="http://www.w3.org/1999/xlink">
    <!-- Generator: Sketch 55.1 (78136) - https://sketchapp.com -->
    <title>Icons/S/X</title>
    <desc>Created with Sketch.</desc>
    <g id="Icons/S/X" stroke="none" stroke-width="1" fill="none" fill-rule="evenodd">
        <path d="M8.98994949,8 L13.939697,12.9497475 C14.213064,13.2231145 14.213064,13.66633 13.939697,13.939697 C13.66633,14.213064 13.2231145,14.213064 12.9497475,13.939697 L8,8.98994949 L3.05025253,13.939697 C2.77688553,14.213064 2.33367004,14.213064 2.06030304,13.939697 C1.78693603,13.66633 1.78693603,13.2231145 2.06030304,12.9497475 L7.01005051,8 L2.06030304,3.05025253 C1.78693603,2.77688553 1.78693603,2.33367004 2.06030304,2.06030304 C2.33367004,1.78693603 2.77688553,1.78693603 3.05025253,2.06030304 L8,7.01005051 L12.9497475,2.06030304 C13.2231145,1.78693603 13.66633,1.78693603 13.939697,2.06030304 C14.213064,2.33367004 14.213064,2.77688553 13.939697,3.05025253 L8.98994949,8 Z" id="Combined-Shape" fill="#FFFFFF"></path>
    </g>
</svg>